<svg id="Layer_2" xmlns="http://www.w3.org/2000/svg" viewBox="0 0 283.46 283.46"><defs><style>.cls-1{fill:#fff;}.cls-2{fill:#1b1d21;}</style></defs><g id="quadrado"><g><rect class="cls-2" width="283.46" height="283.46"/><g><path class="cls-1" d="M194.2,184.57c-.97,0-1.95-.06-2.93-.2-10.37-1.4-18.47-9.78-22.23-22.97-.41-1.42,.42-2.89,1.83-3.29,1.42-.4,2.88,.42,3.29,1.83,3.15,11.07,9.65,18.05,17.82,19.16,6.62,.89,13.24-2.32,16.82-8.19,4.79-7.87,3.25-18.47-4.21-29.09-5.82-8.28-7.34-16.09-4.27-22,2.7-5.2,8.59-8.06,16.59-8.06,1.47,0,2.66,1.19,2.66,2.67s-1.19,2.65-2.66,2.65c-5.92,0-10.13,1.85-11.87,5.2-2.08,3.99-.65,10,3.9,16.49,8.73,12.43,10.34,25.15,4.4,34.91-4.16,6.83-11.45,10.9-19.15,10.9Z"/><g><path class="cls-1" d="M71.78,184.66c-1.47,0-2.66-1.19-2.66-2.66v-34.01c0-35.72,30.14-35.72,40.04-35.72,1.47,0,2.66,1.19,2.66,2.66s-1.19,2.66-2.66,2.66c-24.01,0-34.72,9.38-34.72,30.4v34.01c0,1.47-1.19,2.66-2.66,2.66Z"/><path class="cls-1" d="M95.63,184.66c-1.47,0-2.66-1.19-2.66-2.66v-63.53c0-1.47,1.19-2.67,2.66-2.67s2.66,1.19,2.66,2.67v63.53c0,1.47-1.19,2.66-2.66,2.66Z"/><path class="cls-1" d="M71.78,184.66c-1.47,0-2.66-1.19-2.66-2.66,0-18.51,10.29-34.36,25.01-38.56,1.4-.41,2.89,.42,3.29,1.83,.4,1.41-.42,2.88-1.83,3.29-12.46,3.56-21.15,17.3-21.15,33.44,0,1.47-1.19,2.66-2.66,2.66Z"/></g><g><path class="cls-1" d="M242.22,184.66c-1.47,0-2.67-1.19-2.67-2.66v-34.01c0-35.72,30.15-35.72,40.05-35.72h3.86v5.32h-3.86c-24.02,0-34.73,9.38-34.73,30.4v34.01c0,1.47-1.19,2.66-2.66,2.66Z"/><path class="cls-1" d="M263.4,283.46V118.47c0-1.47,1.19-2.67,2.66-2.67s2.66,1.19,2.66,2.67v165h-5.33Z"/><path class="cls-1" d="M242.22,184.66c-1.47,0-2.67-1.19-2.67-2.66,0-18.51,10.29-34.36,25.02-38.56,1.42-.41,2.89,.42,3.29,1.83,.4,1.41-.42,2.88-1.83,3.29-12.46,3.55-21.16,17.3-21.16,33.44,0,1.47-1.19,2.66-2.66,2.66Z"/></g><g><path class="cls-1" d="M39.11,184.66c-1.47,0-2.66-1.19-2.66-2.66v-34.01c0-21.02-10.71-30.4-34.73-30.4H0v-5.32H1.72c9.91,0,40.06,0,40.06,35.72v34.01c0,1.47-1.19,2.66-2.66,2.66Z"/><path class="cls-1" d="M38.87,184.66c-1.47,0-2.66-1.19-2.66-2.66v-34.01c0-35.72,30.15-35.72,40.06-35.72,1.47,0,2.66,1.19,2.66,2.66s-1.19,2.66-2.66,2.66c-24.02,0-34.73,9.38-34.73,30.4v34.01c0,1.47-1.19,2.66-2.67,2.66Z"/><path class="cls-1" d="M18.12,184.66c-1.47,0-2.66-1.19-2.66-2.66V0h5.33V182c0,1.47-1.19,2.66-2.67,2.66Z"/><path class="cls-1" d="M57.87,184.66c-1.47,0-2.66-1.19-2.66-2.66v-63.99c0-1.47,1.19-2.67,2.66-2.67s2.67,1.19,2.67,2.67v63.99c0,1.47-1.19,2.66-2.67,2.66Z"/></g><path class="cls-1" d="M149.09,184.66h-39.46c-1.47,0-2.66-1.19-2.66-2.66V115.5c0-1.47,1.19-2.67,2.66-2.67s2.66,1.19,2.66,2.67v63.84h36.8c1.47,0,2.66,1.19,2.66,2.67s-1.19,2.66-2.66,2.66Z"/><g><path class="cls-1" d="M136.12,160.12c-1.47,0-2.66-1.19-2.66-2.66v-18.69c0-21.45,11.97-25.95,22.01-25.95,1.47,0,2.67,1.19,2.67,2.67s-1.19,2.65-2.67,2.65c-7.16,0-16.68,2.14-16.68,20.63v18.69c0,1.47-1.19,2.66-2.66,2.66Z"/><path class="cls-1" d="M151.62,184.66c-10.18,0-18.16-11.63-18.16-26.48,0-1.47,1.19-2.66,2.66-2.66s2.66,1.19,2.66,2.66c0,11.47,5.88,21.15,12.84,21.15s12.84-9.69,12.84-21.15v-25.73h-11.57c-1.47,0-2.67-1.19-2.67-2.66s1.19-2.67,2.67-2.67h14.23c1.47,0,2.66,1.19,2.66,2.67v28.39c0,14.85-7.98,26.48-18.17,26.48Z"/></g><g><path class="cls-1" d="M184.65,150.46c-9.03,0-16.38-8.74-16.38-19.48,0-1.47,1.19-2.67,2.66-2.67s2.66,1.19,2.66,2.67c0,7.81,4.96,14.15,11.05,14.15s11.05-6.34,11.05-14.15c0-1.47,1.19-2.67,2.66-2.67s2.66,1.19,2.66,2.67c0,10.74-7.34,19.48-16.37,19.48Z"/><path class="cls-1" d="M198.37,133.61c-1.47,0-2.66-1.19-2.66-2.66,0-7.8-4.95-14.15-11.05-14.15s-11.05,6.35-11.05,14.15c0,1.47-1.19,2.66-2.66,2.66s-2.66-1.19-2.66-2.66c0-10.73,7.35-19.47,16.38-19.47s16.37,8.74,16.37,19.47c0,1.47-1.19,2.66-2.66,2.66Z"/><path class="cls-1" d="M195.15,159.75h-27.52c-1.47,0-2.66-1.19-2.66-2.66s1.19-2.66,2.66-2.66h27.52c1.47,0,2.66,1.19,2.66,2.66s-1.19,2.66-2.66,2.66Z"/></g><path class="cls-1" d="M226.67,184.66c-1.5,0-2.71-1.21-2.71-2.71V114.88c0-1.49,1.21-2.7,2.71-2.7s2.71,1.21,2.71,2.7v67.07c0,1.49-1.21,2.71-2.71,2.71Z"/></g></g></g></svg>